# xmcd CD database file
#
# Track frame offsets:
#	150
#	12675
#	29962
#	49670
#	66300
#	78487
#	92900
#	108812
#	120100
#	135875
#	153075
#	170612
#	190737
#	205500
#	222112
#	239662
#	256375
#
# Disc length: 3664 seconds
#
# Revision: 0
# Processed by: cddbd v1.5.1PL0 Copyright (c) Steve Scherf et al.
# Submitted via: CDex 1.51
#
DISCID=e40e4e11
DTITLE=Various Artist - The Best of Austalia
DYEAR=1992
DGENRE=Country
TTITLE0=Lee Kernaghan - Boys From the Bush
TTITLE1=Mccormack Brothers - Cross My Mind
TTITLE2=The Kanes - Movin' Up
TTITLE3=Pat Drummond - The Gamblers on the Land
TTITLE4=Tania - I'll be Gone
TTITLE5=Brent Parlane - Small Country
TTITLE6=Greg Champion - 88K From Alice
TTITLE7=Keith Glass - Dead Set Keen
TTITLE8=The Danglin' Bros - Stuck in the Middle
TTITLE9=Gina Jeffreys - Say
TTITLE10=Colin Buchanan - Hard Times
TTITLE11=Keith Urban - The River
TTITLE12=Jane Saunders - Darkest Moments
TTITLE13=The Fargone Beauties - Single Drop
TTITLE14=Grant Luhrs - Men Without Shoes
TTITLE15=Micheal Fix - Tantalise
TTITLE16=Graeme Connors - Pacifica
EXTD=YEAR: 1992
EXTT0=
EXTT1=
EXTT2=
EXTT3=
EXTT4=
EXTT5=
EXTT6=
EXTT7=
EXTT8=
EXTT9=
EXTT10=
EXTT11=
EXTT12=
EXTT13=
EXTT14=
EXTT15=
EXTT16=
PLAYORDER=
